<svg width="7" height="7" viewBox="0 0 7 7" fill="none" xmlns="http://www.w3.org/2000/svg">
<path fill-rule="evenodd" clip-rule="evenodd" d="M2.94877 3.10784C2.93009 3.11928 2.91385 3.13429 2.90098 3.152C2.8881 3.16972 2.87884 3.18981 2.87374 3.21111C2.86863 3.23241 2.86777 3.2545 2.87121 3.27613C2.87464 3.29777 2.88231 3.31851 2.89377 3.33717C3.04694 3.58684 3.1771 3.83467 3.26377 4.05984C3.27964 4.1011 3.31125 4.13437 3.35165 4.15233C3.39205 4.17029 3.43792 4.17146 3.47919 4.15559C3.52045 4.13972 3.55372 4.10811 3.57168 4.06771C3.58963 4.02731 3.59081 3.98144 3.57494 3.94017C3.4786 3.68951 3.33727 3.42267 3.17794 3.16284C3.15484 3.12516 3.11772 3.0982 3.07474 3.08789C3.03177 3.07757 2.98646 3.08475 2.94877 3.10784ZM4.68444 2.94884C4.7201 2.97493 4.74394 3.01411 4.75072 3.05777C4.7575 3.10143 4.74667 3.146 4.7206 3.18167C4.52777 3.44551 4.35794 3.79834 4.23844 4.06767C4.22955 4.08768 4.21681 4.10574 4.20095 4.12082C4.18508 4.1359 4.1664 4.14771 4.14597 4.15557C4.12554 4.16343 4.10377 4.16719 4.08188 4.16664C4.06 4.16608 4.03844 4.16123 4.01844 4.15234C3.99843 4.14345 3.98037 4.13071 3.96529 4.11485C3.95021 4.09898 3.9384 4.0803 3.93054 4.05987C3.92268 4.03945 3.91892 4.01767 3.91947 3.99579C3.92003 3.9739 3.92489 3.95234 3.93377 3.93234C4.05444 3.66067 4.2361 3.27967 4.4516 2.98501C4.47769 2.94935 4.51687 2.92551 4.56053 2.91872C4.60419 2.91194 4.64876 2.92277 4.68444 2.94884Z" fill="white"/>
<path fill-rule="evenodd" clip-rule="evenodd" d="M4.29195 1.50617C4.68229 1.05983 6.76945 0.5 6.76945 0.5C6.76945 0.5 6.41462 2.7325 6.10245 3.0895C5.86995 3.3555 5.12912 3.18933 4.76612 3.08717C5.03745 2.671 5.35195 2.2645 5.62845 1.94183C5.65666 1.90821 5.67047 1.86482 5.66688 1.82108C5.66329 1.77733 5.64259 1.73677 5.60928 1.7082C5.57597 1.67963 5.53273 1.66535 5.48895 1.66846C5.44517 1.67158 5.40439 1.69183 5.37545 1.72483C5.09662 2.05017 4.77345 2.4665 4.49045 2.89933C4.33145 2.60333 3.98329 1.85917 4.29195 1.50617ZM1.58529 4.5H0.751953V6.5H1.58529V6.1595C1.75529 6.1525 2.00629 6.1435 2.09312 6.147C2.39095 6.15917 2.61312 6.23017 2.83812 6.302C3.04779 6.36883 3.25962 6.4365 3.53679 6.45767C3.60645 6.463 3.67429 6.46983 3.74012 6.47633C3.97729 6.50033 4.18779 6.52167 4.36179 6.45767C4.58379 6.376 5.85279 5.75483 6.01145 5.59133C6.17012 5.428 6.09079 4.98667 5.59895 5.06833C5.35629 5.10867 5.07512 5.22467 4.81995 5.32983C4.55812 5.43767 4.32379 5.53433 4.18712 5.526C3.91745 5.50967 3.20379 5.379 3.20379 5.379L4.02329 5.389C4.02329 5.389 4.13912 5.395 4.29829 5.28083C4.45745 5.16667 4.59962 4.8395 4.36162 4.8395C4.12362 4.8395 3.86995 4.75783 3.86995 4.75783L2.85462 4.529C2.85462 4.529 2.50562 4.46367 2.36295 4.529C2.24529 4.58283 1.75495 4.7585 1.58529 4.819V4.5ZM1.23162 1.11167C1.23162 1.11167 2.95412 1.57367 3.27612 1.94183C3.52495 2.22633 3.25679 2.81883 3.12179 3.07383C2.94485 2.79598 2.75382 2.52735 2.54945 2.269C2.53589 2.25182 2.51908 2.23748 2.49998 2.22679C2.48088 2.21611 2.45986 2.20929 2.43812 2.20673C2.41639 2.20417 2.39436 2.20591 2.3733 2.21186C2.35223 2.21782 2.33255 2.22786 2.31537 2.24142C2.29819 2.25498 2.28385 2.27179 2.27316 2.29089C2.26248 2.30999 2.25566 2.33101 2.2531 2.35275C2.25054 2.37448 2.25228 2.39651 2.25823 2.41757C2.26419 2.43863 2.27423 2.45832 2.28779 2.4755C2.48642 2.72662 2.672 2.9878 2.84379 3.258C2.53245 3.34233 1.96545 3.4585 1.78212 3.24867C1.52445 2.954 1.23162 1.1115 1.23162 1.1115" fill="white"/>
</svg>
