<svg width="20" height="20" viewBox="0 0 20 20" fill="none" xmlns="http://www.w3.org/2000/svg">
<path d="M7.33366 0.666748H2.00033C1.6467 0.666748 1.30757 0.807224 1.05752 1.05727C0.807468 1.30732 0.666992 1.64646 0.666992 2.00008V7.33341C0.666992 7.68704 0.807468 8.02618 1.05752 8.27622C1.30757 8.52627 1.6467 8.66675 2.00033 8.66675H7.33366C7.68728 8.66675 8.02642 8.52627 8.27647 8.27622C8.52652 8.02618 8.66699 7.68704 8.66699 7.33341V2.00008C8.66699 1.64646 8.52652 1.30732 8.27647 1.05727C8.02642 0.807224 7.68728 0.666748 7.33366 0.666748ZM18.0003 0.666748H12.667C12.3134 0.666748 11.9742 0.807224 11.7242 1.05727C11.4741 1.30732 11.3337 1.64646 11.3337 2.00008V7.33341C11.3337 7.68704 11.4741 8.02618 11.7242 8.27622C11.9742 8.52627 12.3134 8.66675 12.667 8.66675H18.0003C18.3539 8.66675 18.6931 8.52627 18.9431 8.27622C19.1932 8.02618 19.3337 7.68704 19.3337 7.33341V2.00008C19.3337 1.64646 19.1932 1.30732 18.9431 1.05727C18.6931 0.807224 18.3539 0.666748 18.0003 0.666748ZM18.0003 11.3334H12.667C12.3134 11.3334 11.9742 11.4739 11.7242 11.7239C11.4741 11.974 11.3337 12.3131 11.3337 12.6667V18.0001C11.3337 18.3537 11.4741 18.6928 11.7242 18.9429C11.9742 19.1929 12.3134 19.3334 12.667 19.3334H18.0003C18.3539 19.3334 18.6931 19.1929 18.9431 18.9429C19.1932 18.6928 19.3337 18.3537 19.3337 18.0001V12.6667C19.3337 12.3131 19.1932 11.974 18.9431 11.7239C18.6931 11.4739 18.3539 11.3334 18.0003 11.3334ZM7.33366 11.3334H2.00033C1.6467 11.3334 1.30757 11.4739 1.05752 11.7239C0.807468 11.974 0.666992 12.3131 0.666992 12.6667V18.0001C0.666992 18.3537 0.807468 18.6928 1.05752 18.9429C1.30757 19.1929 1.6467 19.3334 2.00033 19.3334H7.33366C7.68728 19.3334 8.02642 19.1929 8.27647 18.9429C8.52652 18.6928 8.66699 18.3537 8.66699 18.0001V12.6667C8.66699 12.3131 8.52652 11.974 8.27647 11.7239C8.02642 11.4739 7.68728 11.3334 7.33366 11.3334Z" stroke="black"/>
</svg>