<svg width="7" height="9" viewBox="0 0 7 9" fill="none" xmlns="http://www.w3.org/2000/svg">
<path d="M3.25977 5.8125C1.60227 5.8125 0.259766 6.48375 0.259766 7.3125V8.0625H6.25977V7.3125C6.25977 6.48375 4.91727 5.8125 3.25977 5.8125ZM1.75977 3.5625C1.75977 3.96032 1.9178 4.34186 2.19911 4.62316C2.48041 4.90446 2.86194 5.0625 3.25977 5.0625C3.65759 5.0625 4.03912 4.90446 4.32043 4.62316C4.60173 4.34186 4.75977 3.96032 4.75977 3.5625M3.07227 0.9375C2.95977 0.9375 2.88477 1.01625 2.88477 1.125V2.25H2.50977V1.3125C2.50977 1.3125 1.66602 1.635 1.66602 2.71875C1.66602 2.71875 1.38477 2.77125 1.38477 3.1875H5.13477C5.11602 2.77125 4.85352 2.71875 4.85352 2.71875C4.85352 1.635 4.00977 1.3125 4.00977 1.3125V2.25H3.63477V1.125C3.63477 1.01625 3.56352 0.9375 3.44727 0.9375H3.07227Z" fill="white"/>
</svg>
