<svg width="8" height="7" viewBox="0 0 8 7" fill="none" xmlns="http://www.w3.org/2000/svg">
<path d="M6.32227 3.5C6.17308 3.5 6.03001 3.44074 5.92452 3.33525C5.81903 3.22976 5.75977 3.08668 5.75977 2.9375C5.75977 2.78832 5.81903 2.64524 5.92452 2.53975C6.03001 2.43426 6.17308 2.375 6.32227 2.375C6.47145 2.375 6.61452 2.43426 6.72001 2.53975C6.8255 2.64524 6.88477 2.78832 6.88477 2.9375C6.88477 3.08668 6.8255 3.22976 6.72001 3.33525C6.61452 3.44074 6.47145 3.5 6.32227 3.5ZM5.19727 2C5.04808 2 4.90501 1.94074 4.79952 1.83525C4.69403 1.72976 4.63477 1.58668 4.63477 1.4375C4.63477 1.28832 4.69403 1.14524 4.79952 1.03975C4.90501 0.934263 5.04808 0.875 5.19727 0.875C5.34645 0.875 5.48952 0.934263 5.59501 1.03975C5.7005 1.14524 5.75977 1.28832 5.75977 1.4375C5.75977 1.58668 5.7005 1.72976 5.59501 1.83525C5.48952 1.94074 5.34645 2 5.19727 2ZM3.32227 2C3.17308 2 3.03001 1.94074 2.92452 1.83525C2.81903 1.72976 2.75977 1.58668 2.75977 1.4375C2.75977 1.28832 2.81903 1.14524 2.92452 1.03975C3.03001 0.934263 3.17308 0.875 3.32227 0.875C3.47145 0.875 3.61452 0.934263 3.72001 1.03975C3.8255 1.14524 3.88477 1.28832 3.88477 1.4375C3.88477 1.58668 3.8255 1.72976 3.72001 1.83525C3.61452 1.94074 3.47145 2 3.32227 2ZM2.19727 3.5C2.04808 3.5 1.90501 3.44074 1.79952 3.33525C1.69403 3.22976 1.63477 3.08668 1.63477 2.9375C1.63477 2.78832 1.69403 2.64524 1.79952 2.53975C1.90501 2.43426 2.04808 2.375 2.19727 2.375C2.34645 2.375 2.48952 2.43426 2.59501 2.53975C2.7005 2.64524 2.75977 2.78832 2.75977 2.9375C2.75977 3.08668 2.7005 3.22976 2.59501 3.33525C2.48952 3.44074 2.34645 3.5 2.19727 3.5ZM4.25977 0.125C3.36466 0.125 2.50622 0.480579 1.87328 1.11351C1.24034 1.74645 0.884766 2.60489 0.884766 3.5C0.884766 4.39511 1.24034 5.25355 1.87328 5.88649C2.50622 6.51942 3.36466 6.875 4.25977 6.875C4.40895 6.875 4.55202 6.81574 4.65751 6.71025C4.763 6.60476 4.82227 6.46168 4.82227 6.3125C4.82227 6.16625 4.76602 6.035 4.67602 5.9375C4.58977 5.83625 4.53352 5.705 4.53352 5.5625C4.53352 5.41332 4.59278 5.27024 4.69827 5.16475C4.80376 5.05926 4.94683 5 5.09602 5H5.75977C6.25705 5 6.73396 4.80246 7.08559 4.45083C7.43722 4.09919 7.63477 3.62228 7.63477 3.125C7.63477 1.4675 6.12352 0.125 4.25977 0.125Z" fill="white"/>
</svg>
