<svg width="15" height="15" viewBox="0 0 15 15" fill="none" xmlns="http://www.w3.org/2000/svg">
<path d="M3.875 13.25C3.53125 13.25 3.23709 13.1277 2.9925 12.8831C2.74792 12.6385 2.62542 12.3442 2.625 12V3.875C2.44792 3.875 2.29959 3.815 2.18 3.695C2.06042 3.575 2.00042 3.42667 2 3.25C1.99959 3.07333 2.05959 2.925 2.18 2.805C2.30042 2.685 2.44875 2.625 2.625 2.625H5.125C5.125 2.44792 5.185 2.29958 5.305 2.18C5.425 2.06042 5.57334 2.00042 5.75 2H8.25C8.42709 2 8.57563 2.06 8.69563 2.18C8.81563 2.3 8.87542 2.44833 8.875 2.625H11.375C11.5521 2.625 11.7006 2.685 11.8206 2.805C11.9406 2.925 12.0004 3.07333 12 3.25C11.9996 3.42667 11.9396 3.57521 11.82 3.69562C11.7004 3.81604 11.5521 3.87583 11.375 3.875V12C11.375 12.3438 11.2527 12.6381 11.0081 12.8831C10.7635 13.1281 10.4692 13.2504 10.125 13.25H3.875ZM10.125 3.875H3.875V12H10.125V3.875ZM5.75 10.75C5.92709 10.75 6.07563 10.69 6.19563 10.57C6.31563 10.45 6.37542 10.3017 6.375 10.125V5.75C6.375 5.57292 6.315 5.42458 6.195 5.305C6.075 5.18542 5.92667 5.12542 5.75 5.125C5.57334 5.12458 5.425 5.18458 5.305 5.305C5.185 5.42542 5.125 5.57375 5.125 5.75V10.125C5.125 10.3021 5.185 10.4506 5.305 10.5706C5.425 10.6906 5.57334 10.7504 5.75 10.75ZM8.25 10.75C8.42709 10.75 8.57563 10.69 8.69563 10.57C8.81563 10.45 8.87542 10.3017 8.875 10.125V5.75C8.875 5.57292 8.815 5.42458 8.695 5.305C8.575 5.18542 8.42667 5.12542 8.25 5.125C8.07334 5.12458 7.925 5.18458 7.805 5.305C7.685 5.42542 7.625 5.57375 7.625 5.75V10.125C7.625 10.3021 7.685 10.4506 7.805 10.5706C7.925 10.6906 8.07334 10.7504 8.25 10.75Z" fill="#F34747"/>
</svg>