<svg width="8" height="7" viewBox="0 0 8 7" fill="none" xmlns="http://www.w3.org/2000/svg">
<path d="M6.00114 0.75102C5.91179 0.757978 5.8264 0.7908 5.75539 0.845477C5.68438 0.900155 5.63083 0.974323 5.60126 1.05893C5.5717 1.14353 5.56741 1.23491 5.58892 1.32192C5.61042 1.40892 5.65679 1.48778 5.72237 1.54887C5.97899 1.80496 6.18245 2.10925 6.32107 2.44424C6.45968 2.77924 6.53071 3.13833 6.53006 3.50087C6.53054 3.86338 6.45943 4.22242 6.32083 4.55739C6.18223 4.89237 5.97885 5.19668 5.72237 5.45287C5.6778 5.49543 5.64219 5.54647 5.61762 5.60299C5.59306 5.65951 5.58004 5.72037 5.57933 5.78199C5.57863 5.84362 5.59024 5.90476 5.6135 5.96183C5.63675 6.0189 5.67118 6.07075 5.71476 6.11433C5.75833 6.1579 5.81018 6.19233 5.86725 6.21559C5.92432 6.23884 5.98546 6.25046 6.04709 6.24975C6.10871 6.24904 6.16957 6.23602 6.22609 6.21146C6.28261 6.18689 6.33365 6.15128 6.37621 6.10671C7.06597 5.41488 7.4533 4.4778 7.4533 3.50087C7.4533 2.52393 7.06597 1.58685 6.37621 0.89502C6.33403 0.850424 6.28338 0.814691 6.22721 0.789912C6.17105 0.765133 6.11051 0.751807 6.04914 0.750712C6.03314 0.750088 6.01713 0.750396 6.00114 0.75102ZM1.41468 0.760251C1.31239 0.773817 1.2176 0.821266 1.14544 0.89502C0.455687 1.58685 0.0683594 2.52393 0.0683594 3.50087C0.0683594 4.4778 0.455687 5.41488 1.14544 6.10671C1.18801 6.15128 1.23905 6.18689 1.29557 6.21146C1.35209 6.23602 1.41295 6.24904 1.47457 6.24975C1.53619 6.25046 1.59734 6.23884 1.65441 6.21559C1.71148 6.19233 1.76333 6.1579 1.8069 6.11433C1.85048 6.07075 1.88491 6.0189 1.90816 5.96183C1.93142 5.90476 1.94303 5.84362 1.94232 5.78199C1.94162 5.72037 1.9286 5.65951 1.90403 5.60299C1.87947 5.54647 1.84386 5.49543 1.79929 5.45287C1.54267 5.19678 1.3392 4.89249 1.20059 4.55749C1.06198 4.2225 0.990953 3.86341 0.991598 3.50087C0.991121 3.13835 1.06222 2.77931 1.20083 2.44434C1.33943 2.10937 1.54281 1.80506 1.79929 1.54887C1.86906 1.48111 1.91564 1.39305 1.93239 1.29724C1.94914 1.20144 1.93519 1.10279 1.89255 1.01539C1.8499 0.927979 1.78073 0.856277 1.69492 0.810514C1.6091 0.764752 1.51102 0.746961 1.41468 0.760251ZM2.58791 1.77964C2.48671 1.79052 2.39195 1.83454 2.31837 1.90487C2.09486 2.10643 1.91609 2.35259 1.79356 2.62748C1.67103 2.90238 1.60747 3.1999 1.60698 3.50087C1.60698 4.13102 1.87468 4.70394 2.30883 5.09717C2.35368 5.13821 2.40617 5.17 2.46332 5.19075C2.52046 5.2115 2.58112 5.22078 2.64185 5.21808C2.70258 5.21538 2.76218 5.20075 2.81726 5.17501C2.87233 5.14928 2.9218 5.11295 2.96283 5.0681C3.00386 5.02325 3.03566 4.97075 3.0564 4.91361C3.07715 4.85647 3.08644 4.7958 3.08374 4.73508C3.08104 4.67435 3.0664 4.61474 3.04067 4.55967C3.01493 4.5046 2.9786 4.45513 2.93375 4.4141C2.80609 4.29877 2.70416 4.15784 2.63461 4.00049C2.56505 3.84314 2.52943 3.6729 2.53006 3.50087C2.52942 3.32875 2.56507 3.15844 2.63468 3.00103C2.70429 2.84363 2.8063 2.70266 2.93406 2.58733C3.0078 2.52318 3.05927 2.43728 3.08105 2.342C3.10284 2.24673 3.09382 2.14699 3.05529 2.05717C3.01676 1.96735 2.95072 1.89208 2.86666 1.8422C2.78261 1.79232 2.68521 1.77042 2.58791 1.77964ZM4.86668 1.77964C4.77514 1.78468 4.68719 1.81687 4.61402 1.8721C4.54085 1.92733 4.48579 2.0031 4.45585 2.08975C4.42591 2.17639 4.42245 2.26999 4.44592 2.35861C4.46938 2.44723 4.51871 2.52685 4.5876 2.58733C4.71535 2.70266 4.81736 2.84363 4.88697 3.00103C4.95659 3.15844 4.99224 3.32875 4.9916 3.50087C4.99224 3.67298 4.95659 3.84329 4.88697 4.0007C4.81736 4.15811 4.71535 4.29907 4.5876 4.4144C4.53617 4.45281 4.49332 4.50153 4.46179 4.55743C4.43025 4.61334 4.41072 4.67521 4.40445 4.73909C4.39818 4.80297 4.4053 4.86745 4.42535 4.92842C4.44541 4.9894 4.47797 5.04551 4.52094 5.09319C4.56392 5.14087 4.61636 5.17906 4.67493 5.20533C4.7335 5.23159 4.7969 5.24535 4.86108 5.24572C4.92527 5.2461 4.98883 5.23308 5.0477 5.2075C5.10657 5.18192 5.15946 5.14435 5.20298 5.09717C5.42658 4.89561 5.60544 4.64941 5.72802 4.37445C5.85061 4.0995 5.91419 3.80191 5.91468 3.50087C5.91582 3.2005 5.85395 2.90324 5.73305 2.62828C5.61216 2.35331 5.43494 2.10677 5.21283 1.90456C5.16678 1.86111 5.11229 1.8276 5.05274 1.8061C4.99319 1.78461 4.92986 1.7756 4.86668 1.77964ZM3.76083 2.94333C3.65057 2.94339 3.54281 2.97614 3.45116 3.03744C3.35951 3.09874 3.2881 3.18584 3.24595 3.28772C3.2038 3.3896 3.1928 3.50169 3.21435 3.60983C3.2359 3.71796 3.28902 3.81727 3.36701 3.89521C3.44499 3.97316 3.54434 4.02623 3.65248 4.04771C3.76062 4.0692 3.87271 4.05814 3.97457 4.01594C4.07643 3.97373 4.16348 3.90227 4.22473 3.81059C4.28598 3.71891 4.31868 3.61112 4.31868 3.50087C4.3188 3.42757 4.30445 3.35498 4.27646 3.28724C4.24847 3.21951 4.20738 3.15796 4.15556 3.10614C4.10373 3.05431 4.04219 3.01323 3.97445 2.98524C3.90672 2.95724 3.83412 2.94321 3.76083 2.94333Z" fill="white"/>
</svg>
