<svg width="8" height="9" viewBox="0 0 8 9" fill="none" xmlns="http://www.w3.org/2000/svg">
<path d="M3.59907 1.16663C2.33973 1.16663 1.71007 1.16663 1.31907 1.55729C0.928068 1.94796 0.927734 2.57629 0.927734 3.83329C0.927734 5.09029 0.927734 5.71896 1.31907 6.10929C1.7104 6.49963 2.33973 6.49996 3.59907 6.49996H4.93473C6.19407 6.49996 6.82373 6.49996 7.21473 6.10929C7.48473 5.83996 7.5684 5.45729 7.5944 4.83329" stroke="white" stroke-width="0.5" stroke-linecap="round"/>
<path d="M4.26172 6.5V7.83333" stroke="white" stroke-width="0.5"/>
<path d="M2.92773 7.83325H5.5944" stroke="white" stroke-width="0.5" stroke-linecap="round"/>
<path d="M3.92773 5.49996H4.5944M5.42773 3.83329V4.49996M6.42773 3.83329V4.49996M5.42773 1.16663V1.83329M6.42773 1.16663V1.83329M4.92773 2.33329H4.26107M4.92773 3.33329H4.26107M7.5944 2.33329H6.92773M7.5944 3.33329H6.92773M6.26107 1.83329H5.5944C5.28007 1.83329 5.12307 1.83329 5.0254 1.93096C4.92773 2.02863 4.92773 2.18563 4.92773 2.49996V3.16663C4.92773 3.48096 4.92773 3.63796 5.0254 3.73563C5.12307 3.83329 5.28007 3.83329 5.5944 3.83329H6.26107C6.5754 3.83329 6.7324 3.83329 6.83007 3.73563C6.92773 3.63796 6.92773 3.48096 6.92773 3.16663V2.49996C6.92773 2.18563 6.92773 2.02863 6.83007 1.93096C6.7324 1.83329 6.5754 1.83329 6.26107 1.83329Z" stroke="white" stroke-width="0.5" stroke-linecap="round" stroke-linejoin="round"/>
</svg>
