<svg width="17" height="10" viewBox="0 0 17 10" fill="none" xmlns="http://www.w3.org/2000/svg">
<path d="M4.32708 1.99575C4.17917 1.99575 4.05556 1.94575 3.95625 1.84575C3.85694 1.74575 3.80694 1.62179 3.80625 1.47388C3.80556 1.32596 3.85556 1.20235 3.95625 1.10304C4.05694 1.00374 4.18056 0.954085 4.32708 0.954085H16.1458C16.2938 0.954085 16.4174 1.00374 16.5167 1.10304C16.6167 1.20304 16.6667 1.327 16.6667 1.47492C16.6667 1.62284 16.6167 1.74645 16.5167 1.84575C16.4167 1.94506 16.2931 1.99506 16.1458 1.99575H4.32708ZM4.32708 5.52075C4.17917 5.52075 4.05556 5.47075 3.95625 5.37075C3.85694 5.27075 3.80694 5.14679 3.80625 4.99888C3.80556 4.85096 3.85556 4.72735 3.95625 4.62804C4.05694 4.52874 4.18056 4.47909 4.32708 4.47909H16.1458C16.2938 4.47909 16.4174 4.52909 16.5167 4.62909C16.616 4.72909 16.666 4.85304 16.6667 5.00096C16.6674 5.14888 16.6174 5.27249 16.5167 5.37179C16.416 5.4711 16.2924 5.52075 16.1458 5.52075H4.32708ZM4.32708 9.04679C4.17917 9.04679 4.05556 8.99679 3.95625 8.89679C3.85625 8.79679 3.80625 8.67283 3.80625 8.52492C3.80625 8.377 3.85625 8.25339 3.95625 8.15408C4.05625 8.05478 4.17986 8.00478 4.32708 8.00409H16.1458C16.2938 8.00409 16.4174 8.05443 16.5167 8.15513C16.616 8.25582 16.666 8.37943 16.6667 8.52596C16.6674 8.67249 16.6174 8.7961 16.5167 8.89679C16.416 8.99749 16.2924 9.04749 16.1458 9.04679H4.32708ZM0.641667 2.1145C0.459722 2.1145 0.307292 2.05096 0.184375 1.92388C0.0614584 1.79818 0 1.64158 0 1.45408C0 1.27839 0.0614584 1.13117 0.184375 1.01242C0.307292 0.892974 0.459722 0.833252 0.641667 0.833252C0.822917 0.833252 0.975 0.892974 1.09792 1.01242C1.22083 1.13047 1.28229 1.2777 1.28229 1.45408C1.28229 1.64158 1.22083 1.79853 1.09792 1.92492C0.975 2.052 0.822569 2.11554 0.640625 2.11554M0.640625 5.62075C0.459375 5.62075 0.307292 5.56138 0.184375 5.44263C0.0614584 5.32388 0 5.17631 0 4.99992C0 4.79853 0.0614584 4.63811 0.184375 4.51867C0.307292 4.39922 0.459722 4.33915 0.641667 4.33846C0.823611 4.33777 0.975694 4.39749 1.09792 4.51763C1.22014 4.63777 1.2816 4.79853 1.28229 4.99992C1.28229 5.17561 1.22083 5.32318 1.09792 5.44263C0.975 5.56207 0.822569 5.62145 0.640625 5.62075ZM0.640625 9.16658C0.459375 9.16658 0.307292 9.10339 0.184375 8.977C0.0614584 8.84992 0 8.69297 0 8.50617C0 8.32978 0.0614584 8.18221 0.184375 8.06346C0.307292 7.94402 0.459722 7.88429 0.641667 7.88429C0.822917 7.88429 0.975 7.94402 1.09792 8.06346C1.22083 8.1829 1.28229 8.33047 1.28229 8.50617C1.28229 8.69297 1.22083 8.84992 1.09792 8.977C0.975 9.10339 0.822569 9.16658 0.640625 9.16658Z" fill="black"/>
</svg>