<svg width="24" height="10" viewBox="0 0 24 10" fill="none" xmlns="http://www.w3.org/2000/svg">
<path d="M0.160511 9.5V0.772727H3.76562C4.41903 0.772727 4.98295 0.900568 5.45739 1.15625C5.93466 1.40909 6.30256 1.76278 6.56108 2.21733C6.8196 2.66903 6.94886 3.1946 6.94886 3.79403C6.94886 4.39631 6.81676 4.9233 6.55256 5.375C6.29119 5.82386 5.91761 6.17187 5.43182 6.41903C4.94602 6.66619 4.36932 6.78977 3.7017 6.78977H1.47727V5.12784H3.30966C3.62784 5.12784 3.89347 5.07244 4.10653 4.96165C4.32244 4.85085 4.4858 4.69602 4.59659 4.49716C4.70739 4.29545 4.76278 4.06108 4.76278 3.79403C4.76278 3.52415 4.70739 3.29119 4.59659 3.09517C4.4858 2.89631 4.32244 2.7429 4.10653 2.63494C3.89063 2.52699 3.625 2.47301 3.30966 2.47301H2.26989V9.5H0.160511ZM7.98864 9.5V0.772727H10.098V4.27557H13.5369V0.772727H15.642V9.5H13.5369V5.9929H10.098V9.5H7.98864ZM16.9652 9.5V0.772727H20.5703C21.2237 0.772727 21.7876 0.900568 22.2621 1.15625C22.7393 1.40909 23.1072 1.76278 23.3658 2.21733C23.6243 2.66903 23.7536 3.1946 23.7536 3.79403C23.7536 4.39631 23.6214 4.9233 23.3572 5.375C23.0959 5.82386 22.7223 6.17187 22.2365 6.41903C21.7507 6.66619 21.174 6.78977 20.5064 6.78977H18.282V5.12784H20.1143C20.4325 5.12784 20.6982 5.07244 20.9112 4.96165C21.1271 4.85085 21.2905 4.69602 21.4013 4.49716C21.5121 4.29545 21.5675 4.06108 21.5675 3.79403C21.5675 3.52415 21.5121 3.29119 21.4013 3.09517C21.2905 2.89631 21.1271 2.7429 20.9112 2.63494C20.6953 2.52699 20.4297 2.47301 20.1143 2.47301H19.0746V9.5H16.9652Z" fill="#1F8E15"/>
</svg>