<svg width="15" height="15" viewBox="0 0 15 15" fill="none" xmlns="http://www.w3.org/2000/svg">
<path d="M2.5 11.25C2.5 10.587 2.76339 9.95107 3.23223 9.48223C3.70107 9.01339 4.33696 8.75 5 8.75H10C10.663 8.75 11.2989 9.01339 11.7678 9.48223C12.2366 9.95107 12.5 10.587 12.5 11.25C12.5 11.5815 12.3683 11.8995 12.1339 12.1339C11.8995 12.3683 11.5815 12.5 11.25 12.5H3.75C3.41848 12.5 3.10054 12.3683 2.86612 12.1339C2.6317 11.8995 2.5 11.5815 2.5 11.25Z" stroke="#3289FF" stroke-width="1.5" stroke-linejoin="round"/>
<path d="M7.5 6.25C8.53553 6.25 9.375 5.41053 9.375 4.375C9.375 3.33947 8.53553 2.5 7.5 2.5C6.46447 2.5 5.625 3.33947 5.625 4.375C5.625 5.41053 6.46447 6.25 7.5 6.25Z" stroke="#3289FF" stroke-width="1.5"/>
</svg>