<svg width="7" height="9" viewBox="0 0 7 9" fill="none" xmlns="http://www.w3.org/2000/svg">
<path fill-rule="evenodd" clip-rule="evenodd" d="M4.28882 0.973541C4.72616 1.12054 5.01116 1.53221 5.01116 2.07187C5.01116 2.41087 4.81849 2.72321 4.60349 2.97187C4.38249 3.22821 4.10316 3.45787 3.85849 3.63621L3.82749 3.65887C3.59016 3.83221 3.39416 3.97554 3.09449 3.97554C2.79449 3.97554 2.59916 3.83221 2.36182 3.65887L2.33049 3.63621C2.08582 3.45787 1.80649 3.22821 1.58549 2.97221C1.37116 2.72321 1.17782 2.41087 1.17782 2.07187C1.17782 1.53221 1.46282 1.12087 1.90016 0.973541C2.27349 0.847874 2.70749 0.930874 3.09449 1.21254C3.48149 0.930874 3.91582 0.847874 4.28882 0.973541ZM4.12949 1.44754C3.91216 1.37421 3.58782 1.42154 3.26382 1.71954C3.21769 1.76194 3.15731 1.78547 3.09466 1.78547C3.032 1.78547 2.97162 1.76194 2.92549 1.71954C2.60116 1.42154 2.27716 1.37421 2.05982 1.44754C1.85116 1.51754 1.67782 1.71887 1.67782 2.07187C1.67782 2.22754 1.77282 2.42354 1.96416 2.64554C2.14949 2.86054 2.39482 3.06454 2.62516 3.23221C2.90616 3.43721 2.97282 3.47554 3.09449 3.47554C3.21616 3.47554 3.28282 3.43721 3.56416 3.23221C3.79416 3.06454 4.03949 2.86054 4.22482 2.64554C4.41649 2.42354 4.51149 2.22754 4.51149 2.07187C4.51149 1.71854 4.33782 1.51754 4.12949 1.44754ZM1.98916 5.31621C2.61116 5.19554 3.27682 5.22287 3.81582 5.54421C3.89116 5.58921 3.96249 5.64554 4.02416 5.71487C4.14949 5.85554 4.21416 6.03054 4.21716 6.20587C4.28071 6.16454 4.34482 6.11932 4.40949 6.07021L5.01216 5.61521C5.16314 5.5044 5.34554 5.44465 5.53282 5.44465C5.72011 5.44465 5.90251 5.5044 6.05349 5.61521C6.33182 5.82521 6.44316 6.20287 6.24349 6.52254C6.10182 6.74987 5.88849 7.06421 5.67116 7.26554C5.45116 7.46887 5.13882 7.63987 4.90249 7.75421C4.61516 7.89287 4.30516 7.96921 4.00349 8.01821C3.38682 8.11821 2.74549 8.10254 2.13616 7.97721C1.82192 7.9126 1.50197 7.87988 1.18116 7.87954H0.427823C0.361519 7.87954 0.297931 7.8532 0.251047 7.80632C0.204162 7.75943 0.177823 7.69585 0.177823 7.62954C0.177823 7.56324 0.204162 7.49965 0.251047 7.45276C0.297931 7.40588 0.361519 7.37954 0.427823 7.37954H1.18116C1.53516 7.37954 1.89282 7.41621 2.23716 7.48754C2.79255 7.6015 3.36397 7.61404 3.92382 7.52454C4.19982 7.47987 4.45782 7.41354 4.68516 7.30387C4.91282 7.19387 5.16882 7.04921 5.33116 6.89854C5.49549 6.74654 5.67916 6.48287 5.81949 6.25821C5.86182 6.19021 5.85582 6.09221 5.75216 6.01387C5.68801 5.96853 5.61138 5.94418 5.53282 5.94418C5.45427 5.94418 5.37764 5.96853 5.31349 6.01387L4.71116 6.46921C4.47049 6.65087 4.17449 6.84521 3.80749 6.90354C3.76904 6.90974 3.73048 6.91518 3.69182 6.91987C3.67271 6.92321 3.65282 6.92543 3.63216 6.92654C3.41799 6.94733 3.20232 6.94733 2.98816 6.92654C2.95495 6.92413 2.92257 6.91512 2.89289 6.90003C2.86322 6.88494 2.83686 6.86407 2.81536 6.83866C2.79386 6.81324 2.77766 6.78379 2.76769 6.75203C2.75773 6.72026 2.75421 6.68683 2.75734 6.65369C2.76047 6.62055 2.77018 6.58836 2.78592 6.55903C2.80165 6.52969 2.82309 6.50379 2.84897 6.48285C2.87484 6.46191 2.90464 6.44635 2.93662 6.43708C2.96859 6.42781 3.00209 6.42502 3.03516 6.42887C3.24449 6.44854 3.43182 6.44421 3.59116 6.42787L3.60116 6.42687C3.63226 6.40757 3.65869 6.38161 3.67854 6.35086C3.69839 6.32011 3.71116 6.28533 3.71595 6.24904C3.72073 6.21275 3.7174 6.17586 3.7062 6.14101C3.69499 6.10617 3.67619 6.07424 3.65116 6.04754C3.62442 6.01849 3.59353 5.99355 3.55949 5.97354C3.16582 5.73854 2.63982 5.69954 2.08416 5.80687C1.54134 5.91584 1.02677 6.1354 0.57249 6.45187C0.5457 6.47087 0.515431 6.48441 0.48341 6.49171C0.45139 6.49901 0.418245 6.49993 0.385868 6.49442C0.353492 6.48891 0.322517 6.47708 0.294713 6.4596C0.26691 6.44212 0.242821 6.41933 0.223823 6.39254C0.204825 6.36575 0.19129 6.33548 0.18399 6.30346C0.17669 6.27144 0.175769 6.2383 0.181279 6.20592C0.192406 6.14053 0.229052 6.08224 0.283157 6.04387C0.795598 5.68634 1.37642 5.4386 1.98916 5.31621Z" fill="white"/>
</svg>
