<svg width="8" height="7" viewBox="0 0 8 7" fill="none" xmlns="http://www.w3.org/2000/svg">
<path d="M7.94724 3.50004C7.94682 3.17405 7.85222 2.85513 7.67481 2.58164C7.4974 2.30815 7.24475 2.09175 6.94724 1.95848V1.87504C6.94693 1.55784 6.84171 1.24966 6.64798 0.998495C6.45424 0.747333 6.18288 0.567302 5.87616 0.486449C5.56944 0.405596 5.24459 0.428462 4.95222 0.551485C4.65985 0.674508 4.41638 0.890779 4.25974 1.1666C4.10311 0.890779 3.85964 0.674508 3.56727 0.551485C3.2749 0.428462 2.95005 0.405596 2.64333 0.486449C2.33661 0.567302 2.06524 0.747333 1.87151 0.998495C1.67778 1.24966 1.57256 1.55784 1.57224 1.87504V1.95848C1.27451 2.09131 1.02163 2.30753 0.844165 2.58102C0.666705 2.85451 0.572266 3.17355 0.572266 3.49957C0.572266 3.82559 0.666705 4.14463 0.844165 4.41812C1.02163 4.69161 1.27451 4.90784 1.57224 5.04067V5.12504C1.57256 5.44224 1.67778 5.75042 1.87151 6.00159C2.06524 6.25275 2.33661 6.43278 2.64333 6.51363C2.95005 6.59449 3.2749 6.57162 3.56727 6.4486C3.85964 6.32557 4.10311 6.1093 4.25974 5.83348C4.41638 6.1093 4.65985 6.32557 4.95222 6.4486C5.24459 6.57162 5.56944 6.59449 5.87616 6.51363C6.18288 6.43278 6.45424 6.25275 6.64798 6.00159C6.84171 5.75042 6.94693 5.44224 6.94724 5.12504V5.04067C7.24474 4.90765 7.49743 4.69144 7.67486 4.41809C7.85228 4.14475 7.94688 3.82592 7.94724 3.50004ZM3.00974 6.18754C2.7336 6.18767 2.46825 6.08029 2.26992 5.88814C2.07158 5.69599 1.95585 5.43418 1.94724 5.15817C2.05026 5.1777 2.15489 5.18753 2.25974 5.18754H2.50974C2.55947 5.18754 2.60716 5.16779 2.64233 5.13262C2.67749 5.09746 2.69724 5.04977 2.69724 5.00004C2.69724 4.95031 2.67749 4.90262 2.64233 4.86746C2.60716 4.83229 2.55947 4.81254 2.50974 4.81254H2.25974C1.94994 4.81279 1.65004 4.70345 1.4131 4.50386C1.17616 4.30427 1.01746 4.0273 0.965075 3.72196C0.912695 3.41661 0.970011 3.10259 1.12688 2.83544C1.28376 2.56829 1.53007 2.36524 1.82224 2.26223C1.85882 2.2493 1.89048 2.22534 1.91287 2.19366C1.93525 2.16199 1.94726 2.12414 1.94724 2.08535V1.87504C1.94724 1.59325 2.05919 1.323 2.25844 1.12374C2.4577 0.924482 2.72795 0.812541 3.00974 0.812541C3.29154 0.812541 3.56179 0.924482 3.76104 1.12374C3.9603 1.323 4.07224 1.59325 4.07224 1.87504V4.15785C3.93775 4.00968 3.77373 3.89129 3.59075 3.81029C3.40776 3.7293 3.20985 3.68748 3.00974 3.68754C2.96002 3.68754 2.91232 3.70729 2.87716 3.74246C2.842 3.77762 2.82224 3.82531 2.82224 3.87504C2.82224 3.92477 2.842 3.97246 2.87716 4.00762C2.91232 4.04279 2.96002 4.06254 3.00974 4.06254C3.29154 4.06254 3.56179 4.17448 3.76104 4.37374C3.9603 4.573 4.07224 4.84325 4.07224 5.12504C4.07224 5.40683 3.9603 5.67708 3.76104 5.87634C3.56179 6.0756 3.29154 6.18754 3.00974 6.18754ZM6.25974 4.81254H6.00974C5.96002 4.81254 5.91232 4.83229 5.87716 4.86746C5.842 4.90262 5.82224 4.95031 5.82224 5.00004C5.82224 5.04977 5.842 5.09746 5.87716 5.13262C5.91232 5.16779 5.96002 5.18754 6.00974 5.18754H6.25974C6.3646 5.18753 6.46922 5.1777 6.57224 5.15817C6.56574 5.36677 6.49794 5.56885 6.3773 5.73916C6.25667 5.90948 6.08854 6.04049 5.89392 6.11586C5.69929 6.19122 5.48677 6.20759 5.2829 6.16293C5.07902 6.11827 4.89282 6.01455 4.74752 5.86472C4.60222 5.71489 4.50427 5.52559 4.46588 5.32044C4.4275 5.11529 4.45039 4.90338 4.53169 4.71116C4.61299 4.51893 4.7491 4.35491 4.92304 4.23956C5.09698 4.12421 5.30103 4.06264 5.50974 4.06254C5.55947 4.06254 5.60716 4.04279 5.64233 4.00762C5.67749 3.97246 5.69724 3.92477 5.69724 3.87504C5.69724 3.82531 5.67749 3.77762 5.64233 3.74246C5.60716 3.70729 5.55947 3.68754 5.50974 3.68754C5.30963 3.68748 5.11172 3.7293 4.92874 3.81029C4.74575 3.89129 4.58174 4.00968 4.44724 4.15785V1.87504C4.44724 1.59325 4.55919 1.323 4.75844 1.12374C4.9577 0.924482 5.22795 0.812541 5.50974 0.812541C5.79154 0.812541 6.06179 0.924482 6.26104 1.12374C6.4603 1.323 6.57224 1.59325 6.57224 1.87504V2.08535C6.57222 2.12414 6.58423 2.16199 6.60662 2.19366C6.62901 2.22534 6.66067 2.2493 6.69724 2.26223C6.98942 2.36524 7.23573 2.56829 7.3926 2.83544C7.54948 3.10259 7.60679 3.41661 7.55441 3.72196C7.50203 4.0273 7.34333 4.30427 7.10639 4.50386C6.86945 4.70345 6.56955 4.81279 6.25974 4.81254ZM6.69724 3.12504C6.69724 3.17477 6.67749 3.22246 6.64233 3.25762C6.60716 3.29279 6.55947 3.31254 6.50974 3.31254H6.38474C6.10295 3.31254 5.8327 3.2006 5.63344 3.00134C5.43419 2.80208 5.32224 2.53183 5.32224 2.25004V2.12504C5.32224 2.07531 5.342 2.02762 5.37716 1.99246C5.41232 1.9573 5.46002 1.93754 5.50974 1.93754C5.55947 1.93754 5.60716 1.9573 5.64233 1.99246C5.67749 2.02762 5.69724 2.07531 5.69724 2.12504V2.25004C5.69724 2.43238 5.76968 2.60725 5.89861 2.73618C6.02754 2.86511 6.20241 2.93754 6.38474 2.93754H6.50974C6.55947 2.93754 6.60716 2.9573 6.64233 2.99246C6.67749 3.02762 6.69724 3.07531 6.69724 3.12504ZM2.13474 3.31254H2.00974C1.96002 3.31254 1.91232 3.29279 1.87716 3.25762C1.842 3.22246 1.82224 3.17477 1.82224 3.12504C1.82224 3.07531 1.842 3.02762 1.87716 2.99246C1.91232 2.9573 1.96002 2.93754 2.00974 2.93754H2.13474C2.31708 2.93754 2.49195 2.86511 2.62088 2.73618C2.74981 2.60725 2.82224 2.43238 2.82224 2.25004V2.12504C2.82224 2.07531 2.842 2.02762 2.87716 1.99246C2.91232 1.9573 2.96002 1.93754 3.00974 1.93754C3.05947 1.93754 3.10716 1.9573 3.14233 1.99246C3.17749 2.02762 3.19724 2.07531 3.19724 2.12504V2.25004C3.19724 2.53183 3.0853 2.80208 2.88604 3.00134C2.68679 3.2006 2.41654 3.31254 2.13474 3.31254Z" fill="white"/>
</svg>
