<svg width="47" height="47" viewBox="0 0 47 47" fill="none" xmlns="http://www.w3.org/2000/svg">
<path fill-rule="evenodd" clip-rule="evenodd" d="M15.244 2.65561C14.5475 2.53274 13.8335 2.54829 13.143 2.70136C12.4524 2.85444 11.7988 3.14205 11.2194 3.54776C10.64 3.95348 10.1462 4.46935 9.76625 5.06592C9.38626 5.66249 9.12751 6.32807 9.00478 7.02465L4.24603 34.0242C3.99783 35.4307 4.31849 36.8781 5.13747 38.0482C5.95644 39.2183 7.20665 40.0151 8.61311 40.2634L31.7567 44.3446C33.1629 44.5922 34.6098 44.2713 35.7795 43.4524C36.9491 42.6335 37.7456 41.3836 37.994 39.9775L42.7567 12.976C42.8795 12.2795 42.864 11.5655 42.7109 10.875C42.5578 10.1844 42.2702 9.5308 41.8645 8.95142C41.4588 8.37204 40.9429 7.87825 40.3463 7.49826C39.7498 7.11826 39.0842 6.85951 38.3876 6.73678L15.244 2.65561ZM17.7429 11.051C17.5512 11.0133 17.354 11.0143 17.1627 11.0538C16.9714 11.0933 16.79 11.1706 16.6289 11.2811C16.4679 11.3916 16.3305 11.5331 16.2248 11.6973C16.1191 11.8616 16.0472 12.0452 16.0133 12.2376C15.9794 12.4299 15.9843 12.6271 16.0276 12.8176C16.0708 13.008 16.1516 13.1879 16.2653 13.3468C16.3789 13.5056 16.5231 13.6402 16.6894 13.7427C16.8557 13.8451 17.0407 13.9134 17.2337 13.9434L32.6614 16.6655C33.0453 16.733 33.4402 16.6453 33.7593 16.4217C34.0785 16.198 34.2957 15.8567 34.3632 15.4729C34.4308 15.0891 34.343 14.6942 34.1194 14.375C33.8957 14.0559 33.5544 13.8386 33.1706 13.7711L17.7429 11.051ZM14.682 19.9575C14.7498 19.5739 14.9672 19.233 15.2863 19.0097C15.6055 18.7864 16.0002 18.6991 16.3838 18.7668L31.8115 21.4869C32.0045 21.517 32.1896 21.5853 32.3558 21.6877C32.5221 21.7902 32.6663 21.9248 32.7799 22.0836C32.8936 22.2425 32.9744 22.4224 33.0177 22.6128C33.0609 22.8033 33.0658 23.0005 33.0319 23.1928C32.9981 23.3852 32.9262 23.5688 32.8205 23.7331C32.7148 23.8973 32.5774 24.0388 32.4163 24.1493C32.2553 24.2598 32.0738 24.3371 31.8825 24.3766C31.6912 24.4161 31.494 24.417 31.3024 24.3794L15.8726 21.6573C15.4895 21.5895 15.1489 21.3724 14.9257 21.0537C14.7025 20.735 14.6148 20.3407 14.682 19.9575ZM15.0227 26.4787C14.8311 26.4411 14.6339 26.4421 14.4426 26.4816C14.2513 26.5211 14.0698 26.5983 13.9088 26.7088C13.7477 26.8193 13.6103 26.9608 13.5046 27.1251C13.3989 27.2893 13.327 27.473 13.2932 27.6653C13.2593 27.8577 13.2642 28.0548 13.3074 28.2453C13.3507 28.4358 13.4315 28.6157 13.5452 28.7745C13.6588 28.9334 13.803 29.068 13.9693 29.1704C14.1355 29.2729 14.3206 29.3411 14.5136 29.3712L24.1564 31.073C24.5402 31.1405 24.9352 31.0528 25.2543 30.8291C25.5734 30.6055 25.7907 30.2642 25.8582 29.8804C25.9257 29.4965 25.838 29.1016 25.6143 28.7825C25.3907 28.4633 25.0494 28.2461 24.6656 28.1786L15.0227 26.4787Z" fill="white"/>
</svg>
