<svg width="45" height="45" viewBox="0 0 45 45" fill="none" xmlns="http://www.w3.org/2000/svg">
<path d="M41.25 25.2712V33.75C41.25 35.2418 40.6574 36.6726 39.6025 37.7275C38.5476 38.7824 37.1168 39.375 35.625 39.375H9.375C7.88316 39.375 6.45242 38.7824 5.39752 37.7275C4.34263 36.6726 3.75 35.2418 3.75 33.75V25.2712L4.78688 25.7906C10.2824 28.5585 16.3501 30 22.5033 29.9993C28.6564 29.9987 34.7238 28.556 40.2188 25.7869L41.25 25.2712ZM26.25 3.75C27.7418 3.75 29.1726 4.34263 30.2275 5.39752C31.2824 6.45242 31.875 7.88316 31.875 9.375V11.25H35.625C37.1168 11.25 38.5476 11.8426 39.6025 12.8975C40.6574 13.9524 41.25 15.3832 41.25 16.875V21.0787L38.5369 22.4362C33.6826 24.8833 28.3326 26.187 22.8967 26.2475C17.4608 26.3079 12.0832 25.1235 7.17562 22.785L5.9625 22.185L3.75 21.0787V16.875C3.75 15.3832 4.34263 13.9524 5.39752 12.8975C6.45242 11.8426 7.88316 11.25 9.375 11.25H13.125V9.375C13.125 7.88316 13.7176 6.45242 14.7725 5.39752C15.8274 4.34263 17.2582 3.75 18.75 3.75H26.25ZM22.5 18.75C22.0027 18.75 21.5258 18.9475 21.1742 19.2992C20.8225 19.6508 20.625 20.1277 20.625 20.625C20.6238 20.8712 20.671 21.1153 20.7641 21.3432C20.8572 21.5712 20.9943 21.7786 21.1675 21.9536C21.3408 22.1286 21.5468 22.2677 21.7738 22.3631C22.0008 22.4584 22.2444 22.5081 22.4906 22.5094C22.7369 22.5106 22.9809 22.4633 23.2089 22.3702C23.4368 22.2771 23.6442 22.1401 23.8192 21.9668C23.9942 21.7936 24.1333 21.5876 24.2287 21.3606C24.3241 21.1336 24.3738 20.89 24.375 20.6438C24.375 19.59 23.535 18.75 22.5 18.75ZM26.25 7.5H18.75C18.2527 7.5 17.7758 7.69754 17.4242 8.04918C17.0725 8.40081 16.875 8.87772 16.875 9.375V11.25H28.125V9.375C28.125 8.87772 27.9275 8.40081 27.5758 8.04918C27.2242 7.69754 26.7473 7.5 26.25 7.5Z" fill="white"/>
</svg>
