<svg width="70" height="70" viewBox="0 0 70 70" fill="none" xmlns="http://www.w3.org/2000/svg">
<path d="M12.5942 59.8966C16.4383 64.1666 22.6275 64.1666 35 64.1666C47.3725 64.1666 53.5617 64.1666 57.4058 59.8937C61.25 55.6266 61.25 48.7491 61.25 34.9999C61.25 21.2508 61.25 14.3762 57.4058 10.1033C53.5617 5.83034 47.3725 5.83325 35 5.83325C22.6275 5.83325 16.4383 5.83325 12.5942 10.1033C8.75 14.3791 8.75 21.2508 8.75 34.9999C8.75 48.7491 8.75 55.6266 12.5942 59.8966Z" stroke="white" stroke-width="3"/>
<path d="M20.417 23.3333C20.417 21.9771 20.417 21.3004 20.5657 20.7433C20.7646 20.0021 21.155 19.3263 21.6977 18.7836C22.2403 18.2409 22.9162 17.8506 23.6574 17.6517C24.2203 17.5 24.897 17.5 26.2503 17.5H43.7503C45.1066 17.5 45.7832 17.5 46.3403 17.6488C47.0815 17.8476 47.7574 18.238 48.3001 18.7807C48.8427 19.3233 49.2331 19.9992 49.432 20.7404C49.5837 21.3033 49.5837 21.98 49.5837 23.3333C49.5837 24.6867 49.5837 25.3662 49.4349 25.9233C49.236 26.6646 48.8456 27.3404 48.303 27.8831C47.7603 28.4257 47.0845 28.8161 46.3432 29.015C45.7832 29.1667 45.1037 29.1667 43.7503 29.1667H26.2503C24.8941 29.1667 24.2174 29.1667 23.6603 29.0179C22.9191 28.819 22.2432 28.4287 21.7006 27.886C21.1579 27.3433 20.7676 26.6675 20.5687 25.9263C20.417 25.3633 20.417 24.6867 20.417 23.3333Z" stroke="white" stroke-width="3"/>
<path d="M23.3337 40.8333C24.9445 40.8333 26.2503 39.5275 26.2503 37.9167C26.2503 36.3058 24.9445 35 23.3337 35C21.7228 35 20.417 36.3058 20.417 37.9167C20.417 39.5275 21.7228 40.8333 23.3337 40.8333Z" fill="white"/>
<path d="M23.3337 52.4998C24.9445 52.4998 26.2503 51.194 26.2503 49.5832C26.2503 47.9723 24.9445 46.6665 23.3337 46.6665C21.7228 46.6665 20.417 47.9723 20.417 49.5832C20.417 51.194 21.7228 52.4998 23.3337 52.4998Z" fill="white"/>
<path d="M34.9997 40.8333C36.6105 40.8333 37.9163 39.5275 37.9163 37.9167C37.9163 36.3058 36.6105 35 34.9997 35C33.3888 35 32.083 36.3058 32.083 37.9167C32.083 39.5275 33.3888 40.8333 34.9997 40.8333Z" fill="white"/>
<path d="M34.9997 52.4998C36.6105 52.4998 37.9163 51.194 37.9163 49.5832C37.9163 47.9723 36.6105 46.6665 34.9997 46.6665C33.3888 46.6665 32.083 47.9723 32.083 49.5832C32.083 51.194 33.3888 52.4998 34.9997 52.4998Z" fill="white"/>
<path d="M46.6667 40.8333C48.2775 40.8333 49.5833 39.5275 49.5833 37.9167C49.5833 36.3058 48.2775 35 46.6667 35C45.0558 35 43.75 36.3058 43.75 37.9167C43.75 39.5275 45.0558 40.8333 46.6667 40.8333Z" fill="white"/>
<path d="M46.6667 52.4998C48.2775 52.4998 49.5833 51.194 49.5833 49.5832C49.5833 47.9723 48.2775 46.6665 46.6667 46.6665C45.0558 46.6665 43.75 47.9723 43.75 49.5832C43.75 51.194 45.0558 52.4998 46.6667 52.4998Z" fill="white"/>
</svg>
