<svg width="36" height="36" viewBox="0 0 36 36" fill="none" xmlns="http://www.w3.org/2000/svg">
<rect width="36" height="36" rx="18" fill="#59ACFF"/>
<path d="M17.25 18.75H9.75001C9.53701 18.75 9.35901 18.678 9.21601 18.534C9.07301 18.39 9.00101 18.2115 9.00001 17.9985C8.99901 17.7855 9.07101 17.6075 9.21601 17.4645C9.36101 17.3215 9.53901 17.25 9.75001 17.25H17.25V9.75001C17.25 9.53701 17.322 9.35901 17.466 9.21601C17.61 9.07301 17.7885 9.00101 18.0015 9.00001C18.2145 8.99901 18.3925 9.07101 18.5355 9.21601C18.6785 9.36101 18.75 9.53901 18.75 9.75001V17.25H26.25C26.463 17.25 26.641 17.322 26.784 17.466C26.927 17.61 26.999 17.7885 27 18.0015C27.001 18.2145 26.929 18.3925 26.784 18.5355C26.639 18.6785 26.461 18.75 26.25 18.75H18.75V26.25C18.75 26.463 18.678 26.641 18.534 26.784C18.39 26.927 18.2115 26.999 17.9985 27C17.7855 27.001 17.6075 26.929 17.4645 26.784C17.3215 26.639 17.25 26.461 17.25 26.25V18.75Z" fill="white"/>
</svg>
