<svg width="30" height="30" viewBox="0 0 30 30" fill="none" xmlns="http://www.w3.org/2000/svg">
<circle cx="15" cy="15" r="15" fill="#3B3E3E"/>
<path d="M11.6667 12.4999H18.3333M11.6667 15.8333H16.6667M20 8.33325C20.663 8.33325 21.2989 8.59664 21.7678 9.06549C22.2366 9.53433 22.5 10.1702 22.5 10.8333V17.4999C22.5 18.163 22.2366 18.7988 21.7678 19.2677C21.2989 19.7365 20.663 19.9999 20 19.9999H15.8333L11.6667 22.4999V19.9999H10C9.33696 19.9999 8.70107 19.7365 8.23223 19.2677C7.76339 18.7988 7.5 18.163 7.5 17.4999V10.8333C7.5 10.1702 7.76339 9.53433 8.23223 9.06549C8.70107 8.59664 9.33696 8.33325 10 8.33325H20Z" stroke="white" stroke-linecap="round" stroke-linejoin="round"/>
</svg>
