<svg width="30" height="30" viewBox="0 0 30 30" fill="none" xmlns="http://www.w3.org/2000/svg">
<rect width="30" height="30" rx="15" fill="#3B3E3E"/>
<path d="M9.375 8.75H20.625C20.7908 8.75 20.9502 8.81541 21.0674 8.93262C21.1846 9.04983 21.25 9.20924 21.25 9.375V20.625C21.25 20.7908 21.1846 20.9502 21.0674 21.0674C20.9502 21.1846 20.7908 21.25 20.625 21.25H9.375C9.20924 21.25 9.04983 21.1846 8.93262 21.0674C8.81541 20.9502 8.75 20.7908 8.75 20.625V9.375C8.75 9.20924 8.81541 9.04983 8.93262 8.93262C9.04983 8.81541 9.20924 8.75 9.375 8.75ZM17.25 13.3037C17.1358 13.3037 17.0236 13.3292 16.9209 13.377L16.8213 13.4326C16.7259 13.4953 16.6456 13.5776 16.5859 13.6738L16.5332 13.7744V13.7754L16.0146 14.9736L14.6582 15.0791C14.5417 15.0881 14.4295 15.1238 14.3291 15.1816L14.2334 15.2461C14.1115 15.3428 14.0207 15.4738 13.9736 15.6221C13.9266 15.7704 13.9258 15.9298 13.9697 16.0791C14.0137 16.2283 14.1009 16.3608 14.2207 16.46V16.4609L15.2334 17.2969L14.9277 18.5391C14.8908 18.6883 14.8984 18.8455 14.9502 18.9902C15.002 19.1349 15.0956 19.2607 15.2188 19.3525C15.3419 19.4444 15.4892 19.4983 15.6426 19.5068C15.7576 19.5131 15.8726 19.494 15.9785 19.4512L16.082 19.4004L17.25 18.7109L18.4209 19.3975C18.5394 19.467 18.6741 19.504 18.8115 19.5049H18.8164C18.983 19.5043 19.1452 19.4504 19.2793 19.3516L19.2812 19.3506C19.4045 19.2587 19.498 19.132 19.5498 18.9873C19.5887 18.8785 19.6029 18.7625 19.5918 18.6484L19.5723 18.5361L19.2656 17.2939L20.2783 16.4609L20.2793 16.46C20.3991 16.3608 20.4863 16.2283 20.5303 16.0791C20.5633 15.9671 20.571 15.8497 20.5527 15.7354L20.5264 15.6221L20.4824 15.5146C20.4315 15.4108 20.358 15.3186 20.2666 15.2461C20.1447 15.1495 19.9968 15.0911 19.8418 15.0791L18.4844 14.9736L17.9668 13.7754V13.7744L17.9141 13.6738C17.8742 13.6095 17.8252 13.5512 17.7686 13.501L17.6787 13.4326L17.5791 13.377C17.4764 13.3292 17.3642 13.3037 17.25 13.3037ZM10.5 17.3125C10.2182 17.3125 9.94828 17.4248 9.74902 17.624C9.54977 17.8233 9.4375 18.0932 9.4375 18.375C9.4375 18.6568 9.54977 18.9267 9.74902 19.126C9.94828 19.3252 10.2182 19.4375 10.5 19.4375H13.3125C13.5943 19.4375 13.8642 19.3252 14.0635 19.126C14.2627 18.9267 14.375 18.6568 14.375 18.375C14.375 18.0932 14.2627 17.8233 14.0635 17.624C13.8642 17.4248 13.5943 17.3125 13.3125 17.3125H10.5ZM10.5 13.9375C10.2182 13.9375 9.94828 14.0498 9.74902 14.249C9.54977 14.4483 9.4375 14.7182 9.4375 15C9.4375 15.2818 9.54977 15.5517 9.74902 15.751C9.94828 15.9502 10.2182 16.0625 10.5 16.0625H12.75C13.0318 16.0625 13.3017 15.9502 13.501 15.751C13.7002 15.5517 13.8125 15.2818 13.8125 15C13.8125 14.7182 13.7002 14.4483 13.501 14.249C13.3017 14.0498 13.0318 13.9375 12.75 13.9375H10.5ZM10.5 10.5625C10.2182 10.5625 9.94828 10.6748 9.74902 10.874C9.54977 11.0733 9.4375 11.3432 9.4375 11.625C9.4375 11.9068 9.54977 12.1767 9.74902 12.376C9.94828 12.5752 10.2182 12.6875 10.5 12.6875H19.5C19.7818 12.6875 20.0517 12.5752 20.251 12.376C20.4502 12.1767 20.5625 11.9068 20.5625 11.625C20.5625 11.3432 20.4502 11.0733 20.251 10.874C20.0517 10.6748 19.7818 10.5625 19.5 10.5625H10.5Z" fill="white" stroke="white"/>
</svg>
